<svg id="logo-mac" viewBox="0 0 27 38" xmlns="http://www.w3.org/2000/svg">

<path d="M11.2147 6.76809C11.5019 4.77611 12.0757 2.8341 12.919 1H1.88674C1.19884 1 1.00001 1.20459 1.00001 1.89174C0.999998 2.57889 1.00001 21.5492 1.00001 22.2099C1.00001 22.8705 1.17633 23 1.88674 23C2.59715 23 15.1186 23 15.1186 23C14.8361 21.5475 14.6285 20.082 14.4967 18.609C13.9885 18.6689 13.477 18.6991 12.9651 18.6993C7.50653 18.6993 5.50275 15.7532 5.42214 15.629C5.40216 15.5846 5.39183 15.5365 5.39183 15.4879C5.39183 15.4394 5.40216 15.3913 5.42214 15.3468C5.43377 15.2671 5.47149 15.1931 5.52963 15.1361C5.58777 15.0792 5.66319 15.0422 5.74459 15.0308C5.80797 15.033 5.86999 15.0493 5.9259 15.0787C5.9818 15.1081 6.03008 15.1496 6.06704 15.2001C6.48244 15.7647 7.0067 16.2441 7.61018 16.6111C9.22572 17.5565 11.0845 18.0267 12.9651 17.9656C13.4576 17.969 13.9499 17.9426 14.4392 17.8866C14.3585 16.7578 14.3125 15.5387 14.3125 14.3874C14.3125 14.1165 14.2319 14.1165 14.0822 14.1165H11.5371C11.3983 14.1217 11.26 14.0983 11.131 14.0478C11.0021 13.9972 10.8854 13.9206 10.7886 13.823C10.6968 13.7249 10.6277 13.6086 10.586 13.482C10.5443 13.3554 10.5309 13.2214 10.5468 13.0893C10.542 13.0254 10.542 12.9613 10.5468 12.8974C10.6486 10.8434 10.8716 8.79685 11.2147 6.76809ZM7.93263 8.52899C7.91464 8.64358 7.8554 8.74808 7.76563 8.82357C7.67586 8.89906 7.56148 8.94056 7.4432 8.94056C7.32491 8.94056 7.21054 8.89906 7.12076 8.82357C7.03099 8.74808 6.97175 8.64358 6.95377 8.52899V6.90354C6.94291 6.83437 6.94744 6.76372 6.96705 6.69643C6.98666 6.62914 7.02088 6.56681 7.06737 6.51369C7.11385 6.46058 7.17151 6.41795 7.23638 6.38872C7.30125 6.35949 7.3718 6.34436 7.4432 6.34436C7.51459 6.34436 7.58514 6.35949 7.65001 6.38872C7.71488 6.41795 7.77254 6.46058 7.81903 6.51369C7.86551 6.56681 7.89973 6.62914 7.91934 6.69643C7.93895 6.76372 7.94348 6.83437 7.93263 6.90354V8.52899ZM24.0697 1H13.7629C12.8613 2.85893 12.2555 4.84225 11.9664 6.88097C11.6343 8.88436 11.4152 10.9042 11.31 12.9312C11.303 13.0667 11.276 13.1695 11.31 13.2489C11.3685 13.3095 11.3885 13.315 11.4943 13.315H14.0393C14.1773 13.3059 14.3156 13.3266 14.4446 13.3757C14.5735 13.4247 14.6898 13.5009 14.7854 13.5989C14.881 13.6969 14.9534 13.8142 14.9976 13.9427C15.0418 14.0711 15.0567 14.2075 15.0412 14.3422C15.0412 15.471 15.0412 16.5998 15.1564 17.7286C16.2633 17.5474 17.3257 17.1645 18.2887 16.5998C18.9215 16.2469 19.4803 15.7796 19.9355 15.2227C19.9724 15.1722 20.0207 15.1306 20.0766 15.1013C20.1325 15.0719 20.1946 15.0555 20.2579 15.0534C20.333 15.0516 20.4063 15.0756 20.4652 15.1211C20.5079 15.1475 20.5448 15.1819 20.5738 15.2224C20.6027 15.2629 20.6232 15.3087 20.6339 15.357C20.6446 15.4054 20.6454 15.4553 20.6362 15.504C20.627 15.5526 20.608 15.599 20.5804 15.6403C19.2567 17.2285 17.3594 18.2554 15.283 18.5074V18.5977C15.4212 20.1893 15.7309 22.0631 15.9267 23H24.103C24.6986 23 24.982 22.8044 24.982 22.0901C24.982 21.3758 25 1.98363 25 1.98363C25 1.21844 24.841 1 24.0697 1ZM19.0027 8.50641C19.0027 8.63215 18.9517 8.75274 18.861 8.84165C18.7703 8.93055 18.6473 8.9805 18.519 8.9805C18.4546 8.98201 18.3904 8.97086 18.3304 8.94771C18.2704 8.92456 18.2157 8.88987 18.1696 8.8457C18.1234 8.80153 18.0868 8.74875 18.0617 8.69049C18.0367 8.63222 18.0238 8.56963 18.0238 8.50641V6.88097C18.013 6.8118 18.0175 6.74115 18.0371 6.67386C18.0567 6.60657 18.091 6.54423 18.1374 6.49112C18.1839 6.438 18.2416 6.39537 18.3065 6.36614C18.3713 6.33692 18.4419 6.32178 18.5133 6.32178C18.5847 6.32178 18.6552 6.33692 18.7201 6.36614C18.785 6.39537 18.8426 6.438 18.8891 6.49112C18.9356 6.54423 18.9698 6.60657 18.9894 6.67386C19.009 6.74115 19.0136 6.8118 19.0027 6.88097V8.50641Z" />
<path d="M10.2084 36.9945H8.77707V29.6134L5.67789 36.9239H4.495L1.47862 29.6134H1.41947V36.9945H0V27H1.76251L5.07461 34.8873L8.38672 27H10.2084V36.9945Z" />
<path d="M11.758 34.9226C11.758 33.6277 12.7516 32.8978 14.5733 32.7801L16.525 32.6624V32.1091C16.525 31.2968 15.9809 30.8495 15.0228 30.8495C14.6932 30.8114 14.361 30.8945 14.0887 31.0831C13.8164 31.2717 13.6227 31.5529 13.5441 31.8736H12.1247C12.1247 30.5669 13.4022 29.6252 15.0701 29.6252C16.7379 29.6252 18.0273 30.5552 18.0273 31.9796V36.971H16.5723V35.7937C16.3362 36.2048 15.99 36.5425 15.5722 36.7691C15.1545 36.9957 14.6816 37.1022 14.2066 37.0769C13.9008 37.1097 13.5915 37.0786 13.2984 36.9857C13.0054 36.8929 12.735 36.7402 12.5046 36.5375C12.2742 36.3347 12.0888 36.0864 11.9602 35.8084C11.8317 35.5303 11.7628 35.2286 11.758 34.9226ZM16.4895 34.2752V33.7101L14.7743 33.816C13.8044 33.8867 13.2839 34.2398 13.2839 34.8755C13.2839 35.5112 13.8162 35.8879 14.6561 35.8879C14.8864 35.9105 15.1191 35.8862 15.3397 35.8163C15.5603 35.7465 15.7643 35.6326 15.9392 35.4817C16.1141 35.3308 16.2563 35.1459 16.357 34.9385C16.4577 34.731 16.5149 34.5053 16.525 34.2752H16.4895Z" />
<path d="M24.545 32.2268C24.4836 31.8274 24.2726 31.4659 23.9545 31.2148C23.6364 30.9637 23.2346 30.8416 22.8298 30.873C21.6469 30.873 20.9017 31.8501 20.9017 33.3569C20.9017 34.8637 21.6824 35.8408 22.8298 35.8408C23.2301 35.8795 23.6304 35.7664 23.9505 35.5241C24.2707 35.2819 24.4872 34.9283 24.5569 34.5341H26C25.9136 35.2885 25.5329 35.9789 24.94 36.4567C24.347 36.9345 23.5893 37.1615 22.8298 37.0887C22.3455 37.1053 21.8633 37.0178 21.416 36.8321C20.9687 36.6465 20.5669 36.3671 20.2379 36.0129C19.909 35.6587 19.6607 35.2381 19.5098 34.7798C19.359 34.3214 19.3093 33.8361 19.364 33.3569C19.3134 32.8795 19.3657 32.3968 19.5173 31.9411C19.6689 31.4853 19.9163 31.067 20.2432 30.7139C20.57 30.3608 20.9687 30.081 21.4127 29.8933C21.8566 29.7056 22.3357 29.6142 22.818 29.6252C23.5828 29.5623 24.3421 29.7991 24.9342 30.285C25.5263 30.7709 25.9045 31.4676 25.9882 32.2268H24.545Z" />

</svg>
