<svg id="logo-ps5" viewBox="0 0 151 34" xmlns="http://www.w3.org/2000/svg">
<path fill-rule="evenodd" clip-rule="evenodd" d="M3.29428 28.8643C-0.157955 27.8817 -0.744154 25.8533 0.833831 24.6845C2.29299 23.6009 4.77404 22.7918 4.77404 22.7918L15.0199 19.1483V23.2997L7.64642 25.9385C6.34252 26.4117 6.14289 27.0678 7.20281 27.4132C8.26272 27.7587 10.1782 27.6609 11.4805 27.194L15.0167 25.9101V29.6246C14.7933 29.6656 14.5414 29.705 14.3117 29.7429C10.6219 30.342 6.84121 30.0405 3.29428 28.8643ZM24.9108 29.2965L36.4082 25.2113C37.7137 24.7382 37.9133 24.0852 36.8534 23.7397C35.7935 23.3943 33.878 23.4921 32.5757 23.9606L24.9139 26.6514V22.3628L25.3576 22.2129C27.0886 21.6554 28.8731 21.2785 30.6825 21.0883C33.7957 20.746 37.6075 21.1356 40.5987 22.265C43.9718 23.3281 44.352 24.8943 43.4949 25.9732C42.6378 27.052 40.5369 27.8202 40.5369 27.8202L24.9139 33.418L24.9108 29.2965ZM26.2559 2.7082C32.3096 4.78864 34.3613 7.37855 34.3613 13.2145C34.3613 18.9006 30.8536 21.0568 26.3985 18.9038V8.29968C26.3985 7.05678 26.1703 5.91167 25.0042 5.58675C24.1107 5.29968 23.5562 6.13091 23.5562 7.37381V33.9117L16.4077 31.6404V0C19.448 0.564669 23.8762 1.89274 26.2559 2.70189V2.7082Z"/>
<path d="M149.719 6.77287H120.567V14.6404C120.567 14.6404 120.478 17.6782 124.252 17.6782H142.071C142.77 17.6725 143.462 17.8128 144.104 18.0899C145.099 18.5316 146.217 19.4306 146.217 21.2445C146.217 22.8722 145.425 23.7965 144.641 24.3139C143.991 24.7315 143.234 24.9508 142.461 24.9448H120.567V27.153H144.98C144.98 27.153 150.525 26.929 150.525 21.2555C150.525 18.3707 148.833 16.9416 147.31 16.2413C146.327 15.7914 145.256 15.5605 144.173 15.5647H126.513C126.219 15.5685 125.928 15.4997 125.667 15.3644C125.29 15.1609 124.875 14.7571 124.875 13.9621V8.95111H149.719V6.77287ZM83.8756 24.9369V27.1451H96.2492C97.7281 27.1607 99.1629 26.6437 100.289 25.6893C100.87 25.1984 101.334 24.5845 101.645 23.8924C101.957 23.2004 102.11 22.4476 102.092 21.6893V12.3028C102.086 11.7895 102.197 11.2815 102.416 10.817C102.636 10.3525 102.958 9.94374 103.36 9.62145C103.929 9.17753 104.634 8.94098 105.357 8.95111H116.145V6.77287H103.298C103.298 6.77287 97.7527 6.8612 97.7527 12.7003V21.4653C97.7625 22.1831 97.5681 22.8891 97.1919 23.5016C96.9197 23.9545 96.5309 24.3268 96.0658 24.58C95.6006 24.8332 95.0759 24.958 94.546 24.9416L83.8756 24.9369ZM55.3071 6.77287V8.95111H77.3609C77.9743 8.9459 78.5813 9.0757 79.1385 9.33123C80.0131 9.73975 80.9953 10.5804 80.9953 12.2855C80.9953 13.9416 80.0131 14.7697 79.1385 15.1798C78.5722 15.4386 77.9555 15.57 77.3324 15.5647H60.9758C60.0076 15.5557 59.0507 15.7717 58.1811 16.1956C56.8202 16.8754 55.3071 18.4763 55.3071 21.1167V27.1104H59.5515V21.1435C59.5487 20.7554 59.6191 20.3702 59.7591 20.0079C60.1092 19.1136 60.9948 17.6782 63.0656 17.6782H79.5584C80.113 17.6812 80.6654 17.6074 81.1997 17.459C82.7143 17.03 85.2397 15.7902 85.2397 12.2855C85.2397 6.83912 79.7944 6.77287 79.7944 6.77287H55.3071Z"/>
</svg>
