<svg id="logo-windows" viewBox="0 0 96 21" xmlns="http://www.w3.org/2000/svg">
<path d="M43.575 4.20001L40.0051 16.8H38.325L35.7 7.55999C35.595 7.24499 35.4901 6.82501 35.4901 6.30001C35.4901 6.72001 35.3851 7.13999 35.2801 7.55999L32.6551 16.8H30.975L27.3 4.20001H28.875L31.6051 13.86C31.7101 14.28 31.8151 14.7 31.8151 15.12C31.8151 14.805 31.9201 14.385 32.1301 13.86L34.9651 4.20001H36.435L39.06 13.965C39.165 14.28 39.27 14.7 39.27 15.12C39.27 14.805 39.3751 14.385 39.4801 13.965L42 4.30502H43.575V4.20001Z" />
<path d="M46.5151 4.93502C46.5151 5.25002 46.41 5.46003 46.2 5.56503C45.99 5.77503 45.78 5.88004 45.57 5.88004C45.255 5.88004 45.0451 5.77503 44.9401 5.67003C44.7301 5.46003 44.625 5.25003 44.625 5.04003C44.625 4.83003 44.7301 4.62002 44.9401 4.41002C45.1501 4.20002 45.36 4.09503 45.57 4.09503C45.885 4.09503 46.095 4.20002 46.2 4.41002C46.41 4.41002 46.5151 4.62002 46.5151 4.93502ZM46.2 16.8H44.7301V7.77003H46.2V16.8Z" />
<path d="M55.86 16.8H54.3901V11.655C54.3901 9.765 53.6551 8.81998 52.2901 8.81998C51.5551 8.81998 51.0301 9.13497 50.5051 9.65997C49.9801 10.185 49.77 10.92 49.77 11.76V16.905H48.3V7.87499H49.77V9.34498C50.4 8.18998 51.45 7.66498 52.71 7.66498C53.655 7.66498 54.495 7.97997 55.02 8.60997C55.545 9.23997 55.7551 10.185 55.7551 11.34V16.8H55.86Z" />
<path d="M65.835 16.8H64.3651V15.225C63.7351 16.38 62.685 17.01 61.32 17.01C60.165 17.01 59.3251 16.59 58.5901 15.75C57.9601 14.91 57.5401 13.86 57.5401 12.495C57.5401 11.025 57.96 9.76501 58.695 8.92501C59.43 7.98001 60.4801 7.55999 61.7401 7.55999C63.0001 7.55999 63.84 8.08502 64.47 9.03002V3.57001H65.9401V16.8H65.835ZM64.3651 12.81V11.445C64.3651 10.71 64.1551 10.08 63.6301 9.55502C63.1051 9.03002 62.58 8.82001 61.845 8.82001C61.005 8.82001 60.27 9.135 59.745 9.765C59.22 10.395 59.01 11.34 59.01 12.39C59.01 13.44 59.22 14.28 59.745 14.805C60.27 15.435 60.9 15.75 61.635 15.75C62.475 15.75 63.1051 15.435 63.6301 14.91C64.1551 14.385 64.3651 13.65 64.3651 12.81Z" />
<path d="M76.4401 12.285C76.4401 13.755 76.0201 14.91 75.1801 15.75C74.3401 16.59 73.29 17.01 71.925 17.01C70.56 17.01 69.51 16.59 68.775 15.75C67.935 14.91 67.6201 13.755 67.6201 12.39C67.6201 10.92 68.0401 9.76501 68.8801 8.82001C69.7201 7.98001 70.7701 7.56 72.2401 7.56C73.6051 7.56 74.6551 7.98001 75.3901 8.82001C76.1251 9.66001 76.4401 10.815 76.4401 12.285ZM74.9701 12.39C74.9701 11.235 74.76 10.395 74.235 9.765C73.71 9.135 72.975 8.82001 72.135 8.82001C71.19 8.82001 70.4551 9.135 69.9301 9.765C69.4051 10.395 69.0901 11.235 69.0901 12.39C69.0901 13.44 69.4051 14.28 69.9301 14.91C70.4551 15.54 71.19 15.855 72.135 15.855C73.08 15.855 73.815 15.54 74.235 14.91C74.76 14.28 74.9701 13.44 74.9701 12.39Z" />
<path d="M89.5651 7.875L86.835 16.905H85.3651L83.475 10.5C83.37 10.29 83.37 9.97498 83.37 9.65998C83.37 9.86998 83.265 10.185 83.16 10.5L81.1651 16.905H79.695L76.9651 7.875H78.435L80.325 14.595C80.43 14.805 80.43 15.12 80.43 15.435H80.535C80.535 15.225 80.64 14.91 80.745 14.595L82.845 7.875H84.21L86.1 14.7C86.205 14.91 86.205 15.225 86.205 15.54H86.31C86.31 15.225 86.4151 15.015 86.4151 14.7L88.2 7.875H89.5651Z" />
<path d="M95.76 14.385C95.76 15.12 95.4451 15.75 94.8151 16.275C94.1851 16.8 93.45 17.01 92.4 17.01C91.56 17.01 90.825 16.8 90.195 16.485V14.91C90.93 15.435 91.6651 15.75 92.5051 15.75C93.6601 15.75 94.185 15.33 94.185 14.49C94.185 14.175 94.08 13.86 93.87 13.65C93.66 13.44 93.135 13.125 92.4 12.81C91.56 12.495 91.035 12.075 90.72 11.76C90.405 11.34 90.195 10.815 90.195 10.185C90.195 9.45 90.5101 8.82001 91.1401 8.29501C91.7701 7.77001 92.505 7.56 93.45 7.56C94.185 7.56 94.8151 7.66502 95.3401 7.98002V9.45002C94.7101 9.03002 94.08 8.82001 93.345 8.82001C92.82 8.82001 92.5051 8.925 92.1901 9.135C91.8751 9.345 91.77 9.66002 91.77 10.08C91.77 10.5 91.875 10.815 92.085 11.025C92.295 11.235 92.82 11.445 93.45 11.76C94.29 12.075 94.92 12.495 95.235 12.915C95.55 13.335 95.76 13.86 95.76 14.385Z" />
<path d="M9.55504 10.08H21V0L9.55504 1.68001V10.08Z" />
<path d="M8.71505 10.08V1.78497L0 2.93998V10.08H8.71505Z" />
<path d="M9.55504 10.92V19.425L21 21V10.92H9.55504Z" />
<path d="M8.71505 10.92H0V18.06L8.71505 19.32V10.92Z" />
</svg>
