<svg id="logo-xbox-series-xs" viewBox="0 0 230 30" xmlns="http://www.w3.org/2000/svg">
<path d="M15.0578 12.1239C15.0757 12.1267 15.0923 12.1349 15.1054 12.1474C19.4579 15.452 26.911 23.6266 24.6385 25.9353C21.9859 28.2509 18.5817 29.5271 15.0578 29.5271C11.5339 29.5271 8.1297 28.2509 5.47715 25.9353C3.20465 23.6266 10.6569 15.452 15.0095 12.1474C15.0229 12.1349 15.0397 12.1267 15.0578 12.1239ZM22.6397 2.5985C20.356 1.20832 17.7327 0.472885 15.0578 0.472885C12.3828 0.472885 9.75959 1.20832 7.47585 2.5985C7.46337 2.60515 7.45391 2.61631 7.44942 2.62971C7.44493 2.6431 7.44575 2.6577 7.45171 2.67051C7.45848 2.68245 7.46934 2.69155 7.48229 2.69616C7.49524 2.70076 7.50942 2.70056 7.52223 2.69558C10.3404 2.08806 14.6213 4.51707 15.0271 4.76093C15.0357 4.76811 15.0466 4.77204 15.0578 4.77204C15.069 4.77204 15.0799 4.76811 15.0884 4.76093C15.4943 4.51707 19.7752 2.08806 22.5934 2.69558C22.6062 2.70056 22.6203 2.70076 22.6333 2.69616C22.6462 2.69155 22.6571 2.68245 22.6639 2.67051C22.6698 2.6577 22.6707 2.6431 22.6662 2.62971C22.6617 2.61631 22.6522 2.60515 22.6397 2.5985ZM4.8699 4.64122C4.84602 4.65422 4.82428 4.67079 4.80543 4.69036C2.29881 7.17285 0.78216 10.4804 0.538204 13.9966C0.294248 17.5127 1.33964 20.9974 3.47949 23.801C3.48761 23.8134 3.49985 23.8225 3.51403 23.8267C3.52822 23.831 3.54346 23.8301 3.55704 23.8242C3.56815 23.8157 3.57592 23.8035 3.579 23.7899C3.58208 23.7762 3.58028 23.762 3.57391 23.7495C2.46472 20.3259 8.13706 12.0253 11.0668 8.54505C11.0782 8.53385 11.0852 8.51898 11.0866 8.5031C11.0863 8.49371 11.0838 8.4845 11.0795 8.47617C11.0751 8.46783 11.069 8.46057 11.0615 8.45493C6.62199 4.04699 5.11455 4.51543 4.86988 4.64122H4.8699ZM19.0542 8.45493C19.0466 8.46057 19.0405 8.46783 19.0361 8.47617C19.0318 8.4845 19.0294 8.49371 19.029 8.5031C19.0304 8.51898 19.0375 8.53385 19.0488 8.54505C21.9786 12.0253 27.6509 20.3259 26.5417 23.7495C26.5353 23.762 26.5335 23.7762 26.5366 23.7899C26.5397 23.8035 26.5475 23.8157 26.5586 23.8242C26.5722 23.8301 26.5874 23.831 26.6016 23.8267C26.6158 23.8225 26.628 23.8134 26.6361 23.801C28.776 20.9974 29.8214 17.5127 29.5774 13.9966C29.3334 10.4804 27.8168 7.17285 25.3102 4.69036C25.2913 4.67079 25.2696 4.65422 25.2457 4.64122C25.001 4.51543 23.4936 4.04699 19.0542 8.45493ZM51.1535 23.9485H48.1754L43.0493 16.9062L37.9231 23.9485H34.9451L41.5602 14.8606L35.4643 6.48598H38.4424L43.0493 12.8149L47.6561 6.48598H50.6342L44.5383 14.8606L51.1535 23.9485ZM66.6122 18.9832C66.6122 20.5162 66.1023 21.7403 65.0967 22.6216C64.0921 23.5021 62.6315 23.9485 60.7555 23.9485H52.5521V16.1721H48.6544L50.2759 13.9445H52.5521V6.48595H60.4125C62.1747 6.48595 63.5446 6.90773 64.4843 7.73957C64.949 8.15098 65.317 8.65971 65.562 9.22946C65.807 9.7992 65.923 10.4159 65.9017 11.0356C65.9262 11.8171 65.7256 12.5892 65.3237 13.2604C64.9217 13.9315 64.3353 14.4734 63.6339 14.8218C64.5207 15.1333 65.2925 15.705 65.8481 16.462C66.3594 17.2025 66.6265 18.0839 66.6122 18.9832H66.6122ZM55.2249 13.9445H60.241C61.2506 13.9445 62.0176 13.7183 62.5208 13.2723C63.0232 12.8271 63.2779 12.1486 63.2779 11.2557C63.2946 10.9133 63.2323 10.5716 63.0959 10.2571C62.9594 9.94252 62.7524 9.66343 62.4909 9.44132C61.9672 9.00709 61.2103 8.78693 60.241 8.78693H55.2249V13.9445ZM63.9149 18.9342C63.9149 18.0172 63.6377 17.3204 63.091 16.8631C62.543 16.4046 61.7078 16.1721 60.6085 16.1721H55.2249V21.6475H60.6085C61.6753 21.6475 62.5024 21.4109 63.0666 20.9443C63.3526 20.6962 63.5777 20.3861 63.7247 20.0376C63.8718 19.6892 63.9368 19.3117 63.9149 18.9342ZM84.5838 15.2172C84.5996 16.4689 84.4024 17.7142 84.0005 18.9C83.6219 19.9799 83.0261 20.9712 82.2495 21.8127C81.4892 22.6355 80.5579 23.2824 79.5208 23.7081C77.28 24.5503 74.8088 24.5503 72.5679 23.7081C71.536 23.2859 70.612 22.6383 69.8638 21.8128C69.0788 20.9789 68.4763 19.9912 68.0945 18.9123C67.3085 16.5134 67.3085 13.9271 68.0945 11.5283C68.4787 10.4415 69.0807 9.44419 69.8638 8.59725C70.6139 7.77836 71.5378 7.13704 72.568 6.72014C74.8103 5.88619 77.2785 5.88619 79.5208 6.72014C80.5561 7.14055 81.4872 7.78105 82.2493 8.59707C83.0255 9.446 83.6212 10.4432 84.0005 11.5284C84.402 12.7163 84.5993 13.9636 84.5838 15.2172ZM70.2758 15.2172C70.2758 17.2716 70.8095 18.9197 71.8619 20.1156C72.3978 20.6914 73.0468 21.1507 73.7685 21.4648C74.4903 21.7788 75.2691 21.941 76.0565 21.941C76.8438 21.941 77.6227 21.7789 78.3444 21.4649C79.0662 21.1509 79.7153 20.6917 80.2512 20.1159L80.2514 20.1156C81.2876 18.9359 81.813 17.2878 81.813 15.2172C81.813 13.1466 81.2875 11.4903 80.2512 10.2942C79.7113 9.7254 79.0609 9.27236 78.3397 8.96275C77.6185 8.65315 76.8416 8.49348 76.0565 8.4935C75.2715 8.49351 74.4946 8.65321 73.7734 8.96284C73.0523 9.27247 72.4018 9.72553 71.8619 10.2944C70.8095 11.5226 70.2758 13.1789 70.2758 15.2172ZM93.0242 14.8606L99.1201 6.48597H96.142L91.5351 12.8149L86.9283 6.48597H83.9502L90.0461 14.8606L83.4309 23.9485H86.409L91.5351 16.9062L96.6613 23.9485H99.6394L93.0242 14.8606ZM121.893 8.88466V13.9444H130.584V16.172H121.893V21.5497H131.717V23.9485H119.22V6.48586H131.717V8.88466H121.893ZM115.744 15.8585C114.87 15.0603 113.42 14.4412 111.432 14.0183L109.913 13.7004C108.47 13.3929 107.468 13.0162 106.934 12.5801C106.666 12.3684 106.454 12.095 106.315 11.7835C106.176 11.4719 106.114 11.1313 106.136 10.7909C106.121 10.4415 106.195 10.094 106.352 9.78113C106.509 9.46826 106.742 9.20025 107.031 9.00225C107.628 8.58347 108.505 8.37111 109.638 8.37111C111.095 8.37111 112.166 8.63659 112.819 9.16023C113.472 9.68296 113.844 10.512 113.924 11.6242L113.926 11.648H116.573L116.573 11.6219C116.54 9.91043 115.939 8.54646 114.787 7.56794C113.637 6.59027 111.896 6.09459 109.614 6.09459C107.722 6.09459 106.2 6.52834 105.09 7.38376C104.553 7.78315 104.12 8.30574 103.829 8.90732C103.537 9.5089 103.395 10.1718 103.414 10.8398C103.414 12.2754 103.878 13.4172 104.794 14.2336C105.708 15.048 107.081 15.6424 108.873 16.0002L110.368 16.3181C111.843 16.6419 112.879 17.0148 113.445 17.4265C113.721 17.6255 113.942 17.8899 114.09 18.1958C114.238 18.5017 114.307 18.8395 114.292 19.1787C114.313 19.5935 114.23 20.007 114.05 20.3815C113.87 20.7559 113.599 21.0793 113.261 21.3221C112.575 21.8138 111.578 22.0632 110.3 22.0632C108.753 22.0632 107.572 21.736 106.788 21.0909C106.005 20.4468 105.596 19.4659 105.572 18.1756L105.572 18.1505H102.899L102.899 18.1763C102.916 20.1802 103.574 21.7253 104.857 22.7689C106.137 23.8112 107.952 24.3397 110.251 24.3397C112.37 24.3397 114.053 23.869 115.252 22.9405C115.839 22.4925 116.31 21.9104 116.625 21.2431C116.941 20.5757 117.09 19.8426 117.063 19.1054C117.09 18.5013 116.986 17.8986 116.758 17.3383C116.53 16.778 116.184 16.2732 115.744 15.8585ZM147.794 21.7934L147.622 19.08C147.631 18.2606 147.408 17.4553 146.981 16.7557C146.542 16.1526 145.907 15.7207 145.184 15.534C146.031 15.2709 146.769 14.74 147.287 14.0215C147.822 13.2275 148.094 12.2855 148.063 11.3289C148.092 10.6517 147.961 9.97727 147.681 9.35997C147.4 8.74268 146.978 8.19985 146.449 7.77531C145.379 6.91968 143.894 6.48583 142.035 6.48583H134.39V23.9485H137.063V16.7834H142.109C143.109 16.7834 143.845 17.0153 144.295 17.4726C144.746 17.9305 144.999 18.727 145.047 19.84L145.121 21.6979C145.137 22.7092 145.312 23.4626 145.64 23.9374L145.648 23.9484H148.401L148.378 23.9098C148.031 23.2552 147.832 22.5329 147.794 21.7934ZM137.063 8.78682H141.888C142.988 8.78682 143.844 9.02355 144.432 9.49043C144.733 9.74432 144.969 10.0651 145.123 10.4269C145.277 10.7887 145.343 11.1814 145.317 11.5735C145.342 11.9815 145.277 12.39 145.129 12.7709C144.98 13.1518 144.75 13.496 144.456 13.7798C143.791 14.3267 142.944 14.6037 142.084 14.5557H137.063V8.78682ZM150.478 23.9484H153.151V6.48584H150.478V23.9484ZM168.321 8.88466V6.48586H155.824V23.9485H168.321V21.5497H158.497V16.172H167.187V13.9444H158.497V8.88466H168.321ZM182.564 15.8585C181.691 15.0603 180.24 14.4412 178.252 14.0183L176.733 13.7004C175.29 13.3929 174.289 13.0162 173.755 12.5801C173.487 12.3684 173.274 12.095 173.135 11.7834C172.996 11.4719 172.935 11.1313 172.956 10.7909C172.941 10.4415 173.016 10.094 173.173 9.78113C173.329 9.46826 173.563 9.20024 173.852 9.00225C174.449 8.58347 175.326 8.37111 176.459 8.37111C177.916 8.37111 178.986 8.63659 179.64 9.16023C180.292 9.68296 180.664 10.512 180.745 11.6242L180.747 11.648H183.394L183.393 11.6219C183.361 9.91043 182.76 8.54646 181.608 7.56794C180.457 6.59027 178.716 6.09459 176.434 6.09459C174.542 6.09459 173.02 6.52834 171.91 7.38376C171.373 7.78315 170.941 8.30574 170.649 8.90732C170.357 9.5089 170.215 10.1718 170.234 10.8398C170.234 12.2754 170.699 13.4172 171.615 14.2336C172.529 15.0481 173.901 15.6425 175.694 16.0002L177.188 16.3181C178.664 16.6419 179.699 17.0148 180.265 17.4265C180.541 17.6255 180.763 17.8899 180.911 18.1958C181.059 18.5017 181.128 18.8395 181.112 19.1787C181.134 19.5935 181.051 20.007 180.871 20.3815C180.691 20.7559 180.419 21.0793 180.082 21.3221C179.395 21.8138 178.399 22.0632 177.12 22.0632C175.574 22.0632 174.392 21.736 173.608 21.0909C172.826 20.4468 172.417 19.4659 172.393 18.1756L172.392 18.1505H169.72L169.72 18.1763C169.736 20.1802 170.395 21.7253 171.677 22.7689C172.958 23.8112 174.773 24.3397 177.071 24.3397C179.19 24.3397 180.873 23.869 182.073 22.9405C182.66 22.4925 183.131 21.9104 183.446 21.2431C183.761 20.5757 183.911 19.8426 183.883 19.1054C183.91 18.5013 183.806 17.8986 183.579 17.3383C183.351 16.778 183.005 16.2732 182.564 15.8585H182.564ZM211.02 4.30313H209.683V26.1313H211.02V4.30313ZM198.783 14.8606L204.879 6.48598H201.901L197.294 12.8149L192.687 6.48597H189.709L195.805 14.8606L189.19 23.9485H192.168L197.294 16.9062L202.42 23.9485H205.398L198.783 14.8606ZM228.154 15.8585C227.281 15.0603 225.83 14.4412 223.842 14.0183L222.323 13.7005C220.88 13.393 219.878 13.0162 219.344 12.5802C219.076 12.3684 218.864 12.0951 218.725 11.7835C218.586 11.4719 218.524 11.1314 218.546 10.791C218.531 10.4415 218.606 10.094 218.762 9.78117C218.919 9.4683 219.153 9.20029 219.442 9.0023C220.039 8.58352 220.916 8.37116 222.048 8.37116C223.505 8.37116 224.576 8.63664 225.229 9.16028C225.882 9.68301 226.254 10.512 226.335 11.6243L226.336 11.648H228.983L228.983 11.6219C228.95 9.91047 228.35 8.54652 227.198 7.56799C226.047 6.59033 224.306 6.09464 222.024 6.09464C220.132 6.09464 218.61 6.52839 217.5 7.38381C216.963 7.7832 216.531 8.30579 216.239 8.90737C215.947 9.50895 215.805 10.1718 215.824 10.8399C215.824 12.2754 216.289 13.4172 217.205 14.2336C218.119 15.0481 219.491 15.6425 221.283 16.0003L222.778 16.3182C224.254 16.6419 225.289 17.0148 225.855 17.4265C226.131 17.6255 226.353 17.8899 226.5 18.1958C226.648 18.5017 226.718 18.8395 226.702 19.1787C226.723 19.5935 226.64 20.007 226.46 20.3815C226.28 20.7559 226.009 21.0793 225.672 21.3221C224.985 21.8139 223.989 22.0632 222.71 22.0632C221.163 22.0632 219.982 21.736 219.198 21.0909C218.416 20.4468 218.007 19.466 217.982 18.1756L217.982 18.1505H215.309L215.31 18.1763C215.326 20.1802 215.984 21.7253 217.267 22.7689C218.548 23.8112 220.362 24.3397 222.661 24.3397C224.78 24.3397 226.463 23.869 227.662 22.9405C228.25 22.4926 228.721 21.9104 229.036 21.2431C229.351 20.5757 229.501 19.8426 229.473 19.1054C229.5 18.5014 229.396 17.8986 229.168 17.3383C228.941 16.778 228.595 16.2733 228.154 15.8585V15.8585Z"/>
</svg>
